# AST/ASF file generated using VICON BodyLanguage
# -----------------------------------------------
:version 1.10
:name VICON
:units
  mass 1.0
  length 0.45
  angle deg
:documentation
   .ast/.asf automatically generated from VICON data using
   VICON BodyBuilder and BodyLanguage model FoxedUp or BRILLIANT.MOD
:root
   order TX TY TZ RX RY RZ
   axis XYZ
   position 0 0 0  
   orientation 0 0 0 
:bonedata
  begin
     id 1 
     name lhipjoint
     direction 0.567725 -0.736092 0.368589 
     length 2.42353 
     axis 0 0 0  XYZ
  end
  begin
     id 2 
     name lfemur
     direction 0.34202 -0.939693 0  
     length 7.24894  
     axis 0 0 20  XYZ
    dof rx ry rz
    limits (-160.0 20.0)
           (-70.0 70.0)
           (-60.0 70.0)
  end
  begin
     id 3 
     name ltibia
     direction 0.34202 -0.939693 0   
     length 7.6997   
     axis 0 0 20   XYZ
    dof rx
    limits (-10.0 170.0)
  end
  begin
     id 4 
     name lfoot
     direction 0.100767 -0.276854 0.955614   
     length 2.37556   
     axis -90 7.62852e-016 20   XYZ
    dof rx rz
    limits (-45.0 90.0)
           (-70.0 20.0)
  end
  begin
     id 5 
     name ltoes
     direction 1.53592e-011 -4.21894e-011 1   
     length 1.18363   
     axis -90 7.62852e-016 20   XYZ
    dof rx
    limits (-90.0 20.0)
  end
  begin
     id 6 
     name rhipjoint
     direction -0.556459 -0.742938 0.372017   
     length 2.4012  
     axis 0 0 0  XYZ 
  end
  begin
     id 7 
     name rfemur
     direction -0.34202 -0.939693 0   
     length 7.5119   
     axis 0 0 -20   XYZ
    dof rx ry rz
    limits (-160.0 20.0)
           (-70.0 70.0)
           (-70.0 60.0)
  end
  begin
     id 8 
     name rtibia
     direction -0.34202 -0.939693 0   
     length 7.50155   
     axis 0 0 -20   XYZ
    dof rx
    limits (-10.0 170.0)
 end
 begin
     id 9 
     name rfoot
     direction -0.118427 -0.325376 0.938139   
     length 2.32487  
     axis -90 -7.62852e-016 -20   XYZ
    dof rx rz
    limits (-45.0 90.0)
           (-20.0 70.0)
  end
  begin
     id 10 
     name rtoes
     direction -1.53525e-011 -4.21868e-011 1   
     length 1.15233   
     axis -90 -7.62852e-016 -20   XYZ
    dof rx
    limits (-90.0 20.0)
  end
  begin
     id 11 
     name lowerback
     direction 0.0287568 0.999577 -0.00434502   
     length 2.15243   
     axis 0 0 0   XYZ
    dof rx ry rz
    limits (-20.0 45.0)
           (-30.0 30.0)
           (-30.0 30.0)
  end
  begin
     id 12 
     name upperback
     direction 0.0294009 0.99956 0.00404628   
     length 2.15427   
     axis 0 0 0   XYZ
    dof rx ry rz
    limits (-20.0 45.0)
           (-30.0 30.0)
           (-30.0 30.0)
  end
  begin
     id 13 
     name thorax
     direction 0.0151014 0.999868 0.0059419   
     length 2.14898   
     axis 0 0 0   XYZ
    dof rx ry rz
    limits (-20.0 45.0)
           (-30.0 30.0)
           (-30.0 30.0)
  end
  begin
     id 14 
     name lowerneck
     direction -0.0249197 0.989906 0.139515   
     length 1.6861   
     axis 0 0 0   XYZ
    dof rx ry rz
    limits (-20.0 45.0)
           (-30.0 30.0)
           (-30.0 30.0)
  end
  begin
     id 15 
     name upperneck
     direction 0.0438463 0.988795 -0.142693   
     length 1.71276   
     axis 0 0 0   XYZ
    dof rx ry rz
    limits (-20.0 45.0)
           (-30.0 30.0)
           (-30.0 30.0)
  end
  begin
     id 16
     name head
     direction 0.0148499 0.997845 -0.0639186  
     length 1.7209  
     axis 0 0 0   XYZ
    dof rx ry rz
    limits (-20.0 45.0)
           (-30.0 30.0)
           (-30.0 30.0)
  end
  begin
     id 17 
     name lclavicle
     direction 0.940298 0.323464 -0.105876  
     length 3.9048  
     axis 0 0 0   XYZ
    dof ry rz
    limits (-20.0 10.0)
           (0.0 20.0)
  end
  begin
     id 18 
     name lhumerus
     direction 1 -4.48954e-011 -4.9675e-028   
     length 4.6851   
     axis 180 -30 -90   XYZ
    dof rx ry rz
    limits (-60.0 90.0)
           (-90.0 90.0)
           (-90.0 90.0)
  end
  begin
     id 19
     name lradius
     direction 1 -4.48992e-011 -1.03359e-026   
     length 3.39626   
     axis 180 -30 -90   XYZ
    dof rx
    limits (-10.0 170.0)
  end
  begin
     id 20
     name lwrist
     direction 1 -4.48906e-011 -1.67336e-026   
     length 1.69813   
     axis 9.90442e-015 90 90   XYZ
    dof ry
    limits (-180.0 0.0)
 end
  begin
     id 21 
     name lhand
     direction 1 -4.49006e-011 -3.34673e-026   
     length 0.486078   
     axis 2.1355e-014 90 90   XYZ
    dof rx rz
    limits (-90.0 90.0)
           (-45.0 45.0)
  end
  begin
     id 22 
     name lfingers
     direction 1 -4.48992e-011 -6.69345e-026   
     length 0.391889   
     axis 4.27099e-014 90 90   XYZ
    dof rx
    limits (0.0 90.0)
  end
  begin
     id 23
     name lthumb
     direction 0.707107 -6.34926e-011 0.707107   
     length 0.562676   
     axis -90 45 2.85299e-015   XYZ
    dof rx rz
    limits (-45.0 45.0)
           (-45.0 45.0)
  end
  begin
     id 24 
     name rclavicle
     direction -0.882459 0.414895 -0.221648   
     length 3.44646  
     axis 0 0 0   XYZ 
    dof ry rz
    limits (-10.0 20.0)
           (-20.0 0.0)
  end
  begin
     id 25 
     name rhumerus
     direction -1 -4.48962e-011 -2.37984e-027  
     length 5.55576   
     axis 180 30 90   XYZ
    dof rx ry rz
    limits (-90.0 60.0)
           (-90.0 90.0)
           (-90.0 90.0)
  end
  begin
     id 26 
     name rradius
     direction -1 -4.48982e-011 -6.86791e-027   
     length 3.32774   
     axis 180 30 90   XYZ
    dof rx
    limits (-10.0 170.0)
  end
  begin
     id 27 
     name rwrist
     direction -1 -4.48961e-011 -1.67336e-026   
     length 1.66387   
     axis 9.90442e-015 -90 -90   XYZ
    dof ry
    limits (-180.0 0.0)
  end
  begin
     id 28
     name rhand
     direction -1 -4.4897e-011 -3.34673e-026   
     length 0.507628   
     axis 2.1355e-014 -90 -90   XYZ
    dof rx rz
    limits (-90.0 90.0)
           (-45.0 45.0)
  end
  begin
     id 29
     name rfingers
     direction -1 -4.48854e-011 -6.69345e-026   
     length 0.409263   
     axis 4.27099e-014 -90 -90   XYZ
    dof rx
    limits (0.0 90.0)
  end
  begin
     id 30
     name rthumb
     direction -0.707107 -6.34913e-011 0.707107   
     length 0.587622   
     axis -90 -45 -2.85299e-015   XYZ
    dof rx rz
    limits (-45.0 45.0)
           (-45.0 45.0)
  end
:hierarchy
  begin
    root lhipjoint rhipjoint lowerback
    lhipjoint lfemur
    lfemur ltibia
    ltibia lfoot
    lfoot ltoes
    rhipjoint rfemur
    rfemur rtibia
    rtibia rfoot
    rfoot rtoes
    lowerback upperback
    upperback thorax
    thorax lowerneck lclavicle rclavicle
    lowerneck upperneck
    upperneck head
    lclavicle lhumerus
    lhumerus lradius
    lradius lwrist
    lwrist lhand lthumb
    lhand lfingers
    rclavicle rhumerus
    rhumerus rradius
    rradius rwrist
    rwrist rhand rthumb
    rhand rfingers
  end

#!OML:ASF E:\motion texture\Top Level 1\Subject 1\Session 1\male.ASF
:FULLY-SPECIFIED
:DEGREES
30
root 44.9765 17.9063 6.00342 110.019 -83.4849 -102.27
lowerback -4.26861 0.201981 4.28866
upperback -3.13173 0.0281242 2.90826
thorax -0.826449 -0.0738445 0.586851
lowerneck -18.3595 -4.5798 -6.16447
upperneck 12.0425 -5.97167 7.99546
head 7.12644 -2.45755 2.92327
rclavicle 8.04457e-015 -4.47266e-014
rhumerus -28.2094 -11.2341 -77.9801
rradius 21.8981
rwrist 14.7443
rhand -11.8134 -23.0482
rfingers 7.12502
rthumb 14.2368 -52.5403
lclavicle 8.04457e-015 -4.47266e-014
lhumerus -28.8169 14.5184 83.4741
lradius 20.9047
lwrist -35.3669
lhand -12.4664 19.4375
lfingers 7.12502
lthumb 13.6075 48.9728
rfemur -9.21232 3.44752 28.2515
rtibia 14.3778
rfoot -8.89948 -10.0663
rtoes 14.3253
lfemur -5.51114 -6.10236 -10.586
ltibia 9.48306
lfoot -9.39949 5.46627
ltoes 1.78488
31
root 44.973 17.9058 6.00386 110.349 -83.4863 -102.567
lowerback -4.27295 0.196808 4.29408
upperback -3.10186 0.019775 2.91898
thorax -0.793417 -0.0770698 0.594465
lowerneck -18.4103 -4.57375 -6.15707
upperneck 12.0756 -5.96289 7.98455
head 7.14445 -2.45229 2.91906
rclavicle 4.33133e-015 -3.39922e-014
rhumerus -28.1871 -11.2815 -77.984
rradius 21.8771
rwrist 14.7718
rhand -11.7963 -23.0331
rfingers 7.12502
rthumb 14.2533 -52.5239
lclavicle 4.33133e-015 -3.39922e-014
lhumerus -28.7626 14.5009 83.5066
lradius 20.9005
lwrist -35.3664
lhand -12.4509 19.4708
lfingers 7.12502
lthumb 13.6225 49.0051
rfemur -9.25318 3.46003 28.2393
rtibia 14.4079
rfoot -8.91453 -10.0502
rtoes 14.3045
lfemur -5.51762 -6.08545 -10.5952
ltibia 9.46601
lfoot -9.40751 5.47894
ltoes 1.79505
32
root 44.9694 17.9052 6.00427 110.663 -83.4884 -102.848
lowerback -4.28067 0.191932 4.2998
upperback -3.0677 0.0114624 2.92964
thorax -0.754082 -0.080112 0.601823
lowerneck -18.471 -4.56736 -6.15478
upperneck 12.1117 -5.95361 7.98261
head 7.16559 -2.44598 2.91859
rclavicle 7.34261e-015 -1.88845e-014
rhumerus -28.1583 -11.3321 -77.9877
rradius 21.8547
rwrist 14.7988
rhand -11.7801 -23.0166
rfingers 7.12502
rthumb 14.2689 -52.5064
lclavicle 7.34261e-015 -1.88845e-014
lhumerus -28.7008 14.4807 83.5432
lradius 20.8968
lwrist -35.3658
lhand -12.4366 19.5035
lfingers 7.12502
lthumb 13.6363 49.0368
rfemur -9.29416 3.47235 28.2267
rtibia 14.4384
rfoot -8.93002 -10.0358
rtoes 14.284
lfemur -5.5253 -6.06841 -10.6048
ltibia 9.45007
lfoot -9.41541 5.48996
ltoes 1.8053
33
root 44.9658 17.9047 6.00464 110.952 -83.4909 -103.104
lowerback -4.29009 0.18733 4.30682
upperback -3.03043 0.00326423 2.94005
thorax -0.710588 -0.083 0.608187
lowerneck -18.5348 -4.56297 -6.14496
upperneck 12.1437 -5.94651 7.96933
head 7.18544 -2.44132 2.91285
rclavicle 2.20993e-015 -5.10877e-014
rhumerus -28.1249 -11.3861 -77.991
rradius 21.8323
rwrist 14.8258
rhand -11.7614 -23.0056
rfingers 7.12502
rthumb 14.2869 -52.4941
lclavicle 2.20993e-015 -5.10877e-014
lhumerus -28.6332 14.4568 83.5834
lradius 20.894
lwrist -35.364
lhand -12.4224 19.5336
lfingers 7.12502
lthumb 13.6499 49.066
rfemur -9.33532 3.48313 28.2145
rtibia 14.4691
rfoot -8.9462 -10.023
rtoes 14.263
lfemur -5.53427 -6.05162 -10.6137
ltibia 9.43536
lfoot -9.42328 5.4991
ltoes 1.8154
34
root 44.9622 17.9041 6.00496 111.227 -83.4941 -103.346
lowerback -4.29857 0.183432 4.31417
upperback -2.99191 -0.00397404 2.95002
thorax -0.666318 -0.0853744 0.613942
lowerneck -18.6076 -4.55844 -6.13931
upperneck 12.1809 -5.93943 7.96391
head 7.20891 -2.43591 2.91029
rclavicle -3.80409e-015 -2.48481e-014
rhumerus -28.0903 -11.4403 -77.9943
rradius 21.8112
rwrist 14.849
rhand -11.7431 -23.0001
rfingers 7.12502
rthumb 14.3045 -52.4873
lclavicle -3.80409e-015 -2.48481e-014
lhumerus -28.5627 14.4296 83.6261
lradius 20.8915
lwrist -35.3639
lhand -12.4081 19.5609
lfingers 7.12502
lthumb 13.6638 49.0924
rfemur -9.37652 3.49291 28.2017
rtibia 14.4998
rfoot -8.96281 -10.011
rtoes 14.2425
lfemur -5.54415 -6.03425 -10.6229
ltibia 9.42133
lfoot -9.43134 5.50598
ltoes 1.82246
